<svg xmlns="http://www.w3.org/2000/svg" xmlns:xlink="http://www.w3.org/1999/xlink" id="Capa_1" x="0px" y="0px" viewBox="0 0 1068.1 1012.7" style="enable-background:new 0 0 1068.1 1012.7;" xml:space="preserve"><style type="text/css">	.st0{fill:#FFFFFF;}</style><path class="st0" d="M211.7,649.7c2.5-15.9,4.2-32,7.9-47.6c1.8-7.6,0.4-12.5-4.3-18.4c-79.5-100.3-36.5-247.5,84.9-288.2 c15.1-5.1,22.5-12.5,29.2-26.5c28.7-60.4,76.7-96.2,143.6-104.8c59.9-7.7,111,10.9,154.1,52.8c3.2,3.1,9.5,5.1,13.8,4.4 c99.2-17.3,197.3,53.6,211.9,153.3c3.7,25.6,3,50.7-4.3,75.6c-1.9,6.6-1.2,11.5,3.5,17.4c83.7,104.1,34,257.3-95.1,292.8 c-6.9,1.9-10.5,4.9-13.2,11.8c-28.6,73-97.4,119.5-175.2,117.8c-47.9-1.1-89.7-18.1-124-51.8c-6.5-6.4-12-8.5-21.5-7.1 C319.4,847.2,220.7,768,213.9,663.9c-0.3-4.7-0.7-9.3-1-14C212.4,649.9,212,649.8,211.7,649.7z M567.7,415.8c5.1,3.1,8,5,11.1,6.8 c52.8,30.5,105.4,61.3,158.5,91.2c13.6,7.7,19.2,17.3,19,32.8c-0.6,50.6-0.2,101.2-0.2,151.7c0,3.7,0.3,7.4,0.5,11.3 c2.5-0.4,3.6-0.4,4.6-0.7c1.7-0.6,3.4-1.2,5-2c48.9-24.3,76.4-63.8,78.9-118c2.3-50.5-18.2-92.4-61.4-119.4 c-48.3-30.2-98.4-57.6-147.9-85.9c-2.7-1.5-7.3-2.4-9.7-1.1C607,392.9,588.2,403.9,567.7,415.8z M485.1,810.9 c27.7,22.7,58.5,33,92.5,31.4c82.1-3.9,132.8-72.9,130.9-138.2c-1.3-46.2-1.8-92.6,0.4-138.8c1.1-23-5.4-36.7-26.7-45.1 c-12.1-4.8-22.9-12.7-36.2-20.2c0,5.9,0,9.3,0,12.8c0,62.4-0.2,124.9,0.1,187.3c0.1,12.5-4.7,20.9-15.6,27 c-24.1,13.4-48,27.4-71.9,41.3C534.5,782.2,510.3,796.2,485.1,810.9z M613,610.3c-5.2,2.8-8.3,4.5-11.4,6.2 c-53.8,31-107.6,61.8-161.2,93.1c-11.5,6.7-21.4,6.8-33,0c-44.5-26.2-89.4-51.8-134.1-77.6c-3.2-1.9-6.7-3.4-11.5-5.9 c0,15.5-1.5,29.2,0.2,42.5c12.1,91.7,115.1,145.2,197.2,101.5c50-26.6,98.5-56.1,147.5-84.6c2.8-1.7,5.9-5.8,6-8.8 C613.2,655.3,613,633.8,613,610.3z M582.4,241.7c-26.1-24.2-63.4-34.5-105.7-30.3c-57.7,5.8-112.9,59.3-115.6,117.1 c-2.9,60.5-1.4,121.2-1.6,181.8c0,2.5,1.1,6.3,3,7.4c18.9,11.4,38.1,22.4,59.1,34.5c0-6,0-9.8,0-13.6c0-61.3,0.2-122.7-0.1-184 c-0.1-14.1,5.3-23.6,17.7-30.4c26.1-14.4,51.7-29.5,77.5-44.3C538.3,267.4,559.9,254.8,582.4,241.7z M455.3,441.9 c5.8-3.2,9.6-5.2,13.3-7.3c53.1-30.6,106.4-61.1,159.3-92.1c11.6-6.8,21.5-6.6,33,0.3c36.4,21.6,73.3,42.5,110,63.6 c11,6.3,22.1,12.7,34,19.5c1-4.7,2-7.8,2.2-11c2.6-52.9-16.5-96-61-125.2c-44.4-29.1-92.1-31.7-138.9-6.5 c-49.3,26.5-97.3,55.4-145.7,83.6c-2.6,1.5-5.8,5.1-5.8,7.8C455,396.3,455.3,418.2,455.3,441.9z M500.1,636.6 c-5.2-3.3-9.3-6.1-13.5-8.5c-52.2-30.1-104.3-60.5-156.8-90.1c-13.3-7.5-18.5-17.3-18.3-32.2c0.5-50.6,0.2-101.2,0.2-151.8 c0-3.7,0-7.4,0-12.6c-5.6,2.4-9.3,3.6-12.7,5.4c-44.9,23.2-71.3,60.1-75.6,110.1c-4.6,53.2,15.7,97.2,61.1,125.9 c48.2,30.4,98.4,57.6,147.9,85.9c2.7,1.5,7.4,2.4,9.8,1.1C461.2,659.3,480,648.2,500.1,636.6z M455.2,525.5 C455.2,525.5,455.2,525.5,455.2,525.5c0,12.9-0.5,25.9,0.3,38.7c0.2,3.8,2.9,8.9,6.1,10.8c22.1,13.4,44.6,26.2,67.1,38.7 c2.7,1.5,7.7,1.6,10.4,0.2c22.9-12.7,45.6-25.8,68.1-39.2c2.7-1.6,5.4-5.9,5.5-9.1c0.4-26.2,0.4-52.4,0-78.6c0-3.2-2.6-7.6-5.3-9.2 c-22.5-13.5-45.1-26.6-68-39.3c-2.9-1.6-8.4-1.4-11.4,0.3c-22.3,12.4-44.4,25-66.1,38.3c-3.4,2-6.1,7.6-6.4,11.7 C454.7,501,455.2,513.3,455.2,525.5z"></path></svg>